<?xml version="1.0" standalone="no"?>
<!DOCTYPE svg PUBLIC "-//W3C//DTD SVG 20010904//EN"
 "http://www.w3.org/TR/2001/REC-SVG-20010904/DTD/svg10.dtd">
<svg version="1.0" xmlns="http://www.w3.org/2000/svg"
 width="1280.000000pt" height="1280.000000pt" viewBox="0 0 1280.000000 1280.000000"
 preserveAspectRatio="xMidYMid meet">
<metadata>
Created by potrace 1.15, written by Peter Selinger 2001-2017
</metadata>
<g transform="translate(0.000000,1280.000000) scale(0.100000,-0.100000)"
fill="#000000" stroke="none">
<path style="fill: #7E5AFF;" d="M2470 12794 c-14 -2 -65 -9 -115 -15 -49 -6 -123 -22 -163 -35 -167
-55 -403 -199 -609 -373 -120 -100 -383 -365 -383 -385 0 -6 711 -722 1579
-1590 l1579 -1579 74 53 c267 194 420 418 493 724 106 443 10 981 -295 1646
-71 156 -209 416 -288 543 -364 590 -888 938 -1514 1006 -91 10 -302 13 -358
5z"/>
<path style="fill: #7E5AFF;" d="M887 11569 c-41 -63 -85 -133 -98 -156 l-24 -43 1521 -1521 1521
-1521 49 53 c26 30 83 88 126 129 l78 75 -1549 1549 -1549 1549 -75 -114z"/>
<path style="fill: #8167a9;" d="M567 10998 c-197 -419 -349 -852 -468 -1333 -128 -515 -132 -977 -13
-1570 252 -1268 1126 -2846 2464 -4450 366 -438 475 -552 815 -849 574 -503
1169 -959 1760 -1351 1396 -926 2628 -1411 3665 -1442 404 -12 727 40 1275
207 380 116 860 306 1064 422 l53 31 -1508 1508 c-830 830 -1512 1509 -1515
1509 -4 0 -42 -21 -84 -47 -362 -217 -779 -260 -1205 -122 -132 42 -393 173
-530 264 -499 334 -1508 1299 -2190 2095 -284 332 -410 509 -526 744 -257 519
-255 1016 7 1456 27 46 49 86 49 90 0 7 -3016 3020 -3023 3020 -2 0 -43 -82
-90 -182z"/>
<path style="fill: #7E5AFF;" d="M9755 4954 c-383 -56 -658 -214 -868 -499 l-67 -90 1583 -1582 c870
-871 1585 -1583 1589 -1583 17 0 350 342 420 430 146 186 266 383 322 532 35
91 55 218 63 383 20 470 -127 917 -424 1285 -87 108 -270 282 -396 376 -327
246 -943 541 -1377 660 -241 67 -372 86 -605 89 -115 2 -223 1 -240 -1z"/>
<path style="fill: #7E5AFF;" d="M8518 3993 c-35 -38 -92 -93 -125 -124 l-61 -56 1519 -1519 c836
-836 1526 -1519 1533 -1518 14 1 241 143 277 174 l24 19 -1545 1545 c-850 850
-1548 1546 -1551 1546 -3 0 -35 -30 -71 -67z"/>
</g>
</svg>
